ModelForces
version=1
nRows=12
nColumns=29
inDegrees=no

This file contains the forces exerted on a model during a simulation.

A force is a generalized force, meaning that it can be either a force (N) or a torque (Nm).

Units are S.I. units (second, meters, Newtons, ...)
If the header above contains a line with 'inDegrees', this indicates whether rotational values are in degrees (yes) or radians (no).

endheader
time	gastroc	glut_max	iliopsoas	recfem	hamstrings	soleus	tibant	vasti	ankle_angle_LimitForce	PotentialEnergy	knee_angle_LimitForce	PotentialEnergy	hip_flexion_LimitForce	PotentialEnergy	patellofemoral_knee_angle_con_mobility_F0	patellofemoral_knee_angle_con_mobility_F1	seatConstraint_ground_Fx	seatConstraint_ground_Fy	seatConstraint_ground_Fz	seatConstraint_ground_Mx	seatConstraint_ground_My	seatConstraint_ground_Mz	seatConstraint_femur_r_Fx	seatConstraint_femur_r_Fy	seatConstraint_femur_r_Fz	seatConstraint_femur_r_Mx	seatConstraint_femur_r_My	seatConstraint_femur_r_Mz
      0.75069006	     16.31957881	    471.87698990	     18.77848830	     17.06609991	     99.92587037	    171.87632738	      7.26133327	   2006.69134211	      0.00000000	      0.00000000	      0.00000000	      0.00000000	      0.00000000	      0.00000000	    -25.66839395	     25.66839395	     71.19374785	     95.84281845	     -0.00000398	      0.73363026	     -0.54495618	    -62.44470391	    -71.19374785	    -95.84281845	      0.00000398	      0.00000000	      0.00000000	      0.00000000
      0.75357090	     16.31957881	    475.05553983	     18.33531256	     16.55908131	     97.68428611	    171.87632738	      7.26133327	   2005.44844818	      0.00000000	      0.00000000	      0.00000000	      0.00000000	      0.00000000	      0.00000000	    -25.64774086	     25.64774086	     71.58745943	     95.62368254	     -0.00000395	      0.73195289	     -0.54796985	    -62.60870322	    -71.58745943	    -95.62368254	      0.00000395	      0.00000000	      0.00000000	      0.00000000
      0.75772682	     16.31957881	    479.63401372	     17.72615033	     15.86763797	    104.51239895	    171.87632738	      7.26133327	   2003.51664463	      0.00000000	      0.00000000	      0.00000000	      0.00000000	      0.00000000	      0.00000000	    -25.61656764	     25.61656764	     70.63461238	     95.66284945	     -0.00000399	      0.73225267	     -0.54067626	    -62.09291170	    -70.63461238	    -95.66284945	      0.00000399	      0.00000000	      0.00000000	      0.00000000
      0.75898123	     16.31957881	    481.01479515	     17.54912974	     15.66766359	    101.33408020	    171.87632738	      7.26133327	   2002.90355440	      0.00000000	      0.00000000	      0.00000000	      0.00000000	      0.00000000	      0.00000000	    -25.60686119	     25.60686119	     71.14315935	     95.49797094	     -0.00000396	      0.73099062	     -0.54456894	    -62.33334839	    -71.14315935	    -95.49797094	      0.00000396	      0.00000000	      0.00000000	      0.00000000
      0.76221745	     16.31957881	    484.57596501	     17.10618865	     15.16951993	    101.20772527	    171.87632738	      7.26133327	   2001.26228574	      0.00000000	      0.00000000	      0.00000000	      0.00000000	      0.00000000	      0.00000000	    -25.58123378	     25.58123378	     71.23122895	     95.35276130	     -0.00000395	      0.72987912	     -0.54524307	    -62.34675118	    -71.23122895	    -95.35276130	      0.00000395	      0.00000000	      0.00000000	      0.00000000
      0.76683826	     16.31957881	    489.65759598	     16.50667055	     14.50007993	    107.29635620	    171.87632738	      7.26133327	   1998.78155204	      0.00000000	      0.00000000	      0.00000000	      0.00000000	      0.00000000	      0.00000000	    -25.54330042	     25.54330042	     70.41538187	     95.37642897	     -0.00000398	      0.73006026	     -0.53899815	    -61.90273152	    -70.41538187	    -95.37642897	      0.00000398	      0.00000000	      0.00000000	      0.00000000
      0.76762298	     16.31957881	    490.51945647	     16.40861553	     14.39098394	    104.29076345	    171.87632738	      7.26133327	   1998.34544327	      0.00000000	      0.00000000	      0.00000000	      0.00000000	      0.00000000	      0.00000000	    -25.53671431	     25.53671431	     70.88809501	     95.23954785	     -0.00000395	      0.72901252	     -0.54261654	    -62.13019083	    -70.88809501	    -95.23954785	      0.00000395	      0.00000000	      0.00000000	      0.00000000
      0.77037435	     16.31957881	    493.54132991	     16.07287006	     14.01857180	    102.34922392	    171.87632738	      7.26133327	   1996.78484941	      0.00000000	      0.00000000	      0.00000000	      0.00000000	      0.00000000	      0.00000000	    -25.51331894	     25.51331894	     71.24758246	     95.06411990	     -0.00000392	      0.72766971	     -0.54536825	    -62.28590275	    -71.24758246	    -95.06411990	      0.00000392	      0.00000000	      0.00000000	      0.00000000
      0.77467261	     16.31957881	    498.26145494	     15.57258932	     13.46671247	    111.17357382	    171.87632738	      7.26133327	   1994.25555446	      0.00000000	      0.00000000	      0.00000000	      0.00000000	      0.00000000	      0.00000000	    -25.47589832	     25.47589832	     70.02860446	     95.22296976	     -0.00000399	      0.72888560	     -0.53603755	    -61.65237085	    -70.02860446	    -95.22296976	      0.00000399	      0.00000000	      0.00000000	      0.00000000
      0.77537794	     16.31957881	    499.03488061	     15.49330087	     13.37944483	    106.70422335	    171.87632738	      7.26133327	   1993.83062768	      0.00000000	      0.00000000	      0.00000000	      0.00000000	      0.00000000	      0.00000000	    -25.46966389	     25.46966389	     70.71938344	     95.03588165	     -0.00000394	      0.72745355	     -0.54132513	    -61.98789007	    -70.71938344	    -95.03588165	      0.00000394	      0.00000000	      0.00000000	      0.00000000
      0.77747987	     16.31957881	    501.34050562	     15.26132780	     13.12472607	    105.50252427	    171.87632738	      7.26133327	   1992.54888442	      0.00000000	      0.00000000	      0.00000000	      0.00000000	      0.00000000	      0.00000000	    -25.45094029	     25.45094029	     70.95621256	     94.91787680	     -0.00000393	      0.72655029	     -0.54313794	    -62.08988354	    -70.95621256	    -94.91787680	      0.00000393	      0.00000000	      0.00000000	      0.00000000
      0.78281330	     16.31957881	    507.19019344	     14.70105954	     12.51255506	    115.84456257	    171.87632738	      7.26133327	   1989.20066275	      0.00000000	      0.00000000	      0.00000000	      0.00000000	      0.00000000	      0.00000000	    -25.40254122	     25.40254122	     69.55688922	     95.11975598	     -0.00000400	      0.72809554	     -0.53242679	    -61.36734843	    -69.55688922	    -95.11975598	      0.00000400	      0.00000000	      0.00000000	      0.00000000
